<svg width="23" height="23" viewBox="0 0 21 21" fill="none" xmlns="http://www.w3.org/2000/svg">
<path d="M8.82 1.26001C4.88086 1.26001 1.68 4.46087 1.68 8.40001C1.68 12.3392 4.88086 15.54 8.82 15.54C10.3786 15.54 11.8191 15.038 12.9937 14.1881L18.5194 19.7006L19.7006 18.5194L14.2406 13.0463C15.3136 11.7961 15.96 10.1735 15.96 8.40001C15.96 4.46087 12.7591 1.26001 8.82 1.26001ZM8.82 2.10001C12.3047 2.10001 15.12 4.91532 15.12 8.40001C15.12 11.8847 12.3047 14.7 8.82 14.7C5.33531 14.7 2.52 11.8847 2.52 8.40001C2.52 4.91532 5.33531 2.10001 8.82 2.10001Z" fill="white"/>
</svg>
